<?xml version="1.0" standalone="no"?>
<!DOCTYPE svg PUBLIC "-//W3C//DTD SVG 20010904//EN"
 "http://www.w3.org/TR/2001/REC-SVG-20010904/DTD/svg10.dtd">
<svg version="1.0" xmlns="http://www.w3.org/2000/svg"
 width="300.000000pt" height="300.000000pt" viewBox="0 0 300.000000 300.000000"
 preserveAspectRatio="xMidYMid meet">
<metadata>
Created by potrace 1.10, written by Peter Selinger 2001-2011
</metadata>
<g transform="translate(0.000000,300.000000) scale(0.100000,-0.100000)"
fill="#000000" stroke="none">
<path d="M1833 1823 c-35 -36 -45 -87 -21 -111 6 -6 9 -14 6 -17 -11 -11 -34
7 -56 45 -18 33 -28 40 -53 40 -43 0 -91 -23 -119 -56 -25 -29 -26 -29 -122
-26 -55 2 -96 8 -92 13 3 5 -4 9 -16 9 -42 0 -104 -26 -138 -57 -19 -18 -37
-33 -39 -33 -3 0 -23 16 -46 35 -22 19 -49 35 -59 35 -10 0 -18 4 -18 9 0 5
-20 9 -45 9 -25 1 -45 -3 -45 -8 0 -6 -13 -10 -29 -10 -16 0 -31 -3 -33 -8 -6
-15 -61 -52 -69 -46 -5 3 -9 34 -9 70 0 78 -10 99 -53 113 -63 21 -137 -18
-137 -73 l0 -31 -33 35 c-70 77 -122 93 -176 52 l-31 -23 0 -210 c0 -210 0
-210 25 -234 50 -51 155 -23 170 45 6 27 25 43 25 21 0 -17 53 -73 78 -82 15
-6 37 -6 60 0 19 6 42 6 51 2 9 -5 25 -5 36 -1 11 4 28 3 38 -2 13 -6 28 -6
48 2 23 10 32 10 44 0 9 -7 38 -11 77 -9 58 3 66 6 98 40 l36 36 42 -37 42
-38 125 0 c119 -1 126 0 155 24 16 14 30 34 30 45 0 10 5 19 10 19 6 0 10 -6
10 -13 0 -16 42 -57 58 -57 7 0 12 -4 12 -9 0 -8 76 -8 150 -1 8 1 34 -2 57
-5 33 -6 51 -3 80 13 38 19 39 19 62 1 34 -28 101 -25 130 5 18 19 22 37 25
98 1 41 6 79 10 86 13 22 33 13 46 -20 18 -49 31 -81 41 -100 7 -14 2 -24 -21
-45 -26 -23 -30 -33 -30 -78 0 -38 5 -56 18 -68 25 -23 87 -21 139 4 47 23
103 83 103 111 0 9 5 20 10 23 6 3 10 17 10 30 0 13 5 27 10 30 6 3 10 17 10
30 0 13 5 27 10 30 6 3 10 16 10 29 0 12 4 26 8 31 12 14 32 88 32 118 0 34
-25 47 -94 47 -43 0 -59 -5 -75 -21 l-20 -21 -34 21 c-22 14 -51 21 -81 21
-29 0 -45 4 -41 10 3 6 1 10 -4 10 -6 0 -11 17 -11 38 0 51 -29 82 -76 82 -32
0 -59 -14 -134 -67 -19 -15 -23 -15 -18 -3 3 10 -8 29 -31 50 -48 46 -83 47
-128 3z m111 -22 c25 -27 17 -70 -17 -95 -26 -19 -30 -19 -55 -5 -62 34 -47
119 22 119 20 0 40 -8 50 -19z m246 -45 c0 -48 -2 -55 -22 -58 -32 -5 -35 -28
-4 -28 25 0 26 -3 26 -55 0 -52 -1 -55 -25 -55 l-25 0 0 -103 0 -102 -60 -1
-60 -1 0 104 c0 82 -3 103 -14 103 -10 0 -15 16 -18 55 -2 44 0 55 12 55 9 0
22 20 33 49 14 41 24 53 60 70 23 12 54 21 70 21 26 0 27 -2 27 -54z m-1590
-56 c36 -55 67 -100 70 -100 3 0 4 45 2 100 l-3 100 65 0 66 0 0 -113 c0 -107
-1 -113 -22 -122 -13 -6 -24 -17 -26 -25 -2 -12 11 -15 68 -15 74 0 88 11 48
37 l-23 15 28 36 c95 124 297 60 297 -95 l0 -50 -105 4 c-66 2 -104 -1 -102
-7 6 -18 66 -29 93 -16 23 10 30 8 59 -16 19 -16 34 -31 34 -35 2 -14 -48 -40
-87 -45 -63 -8 -148 46 -167 107 -5 15 -18 19 -75 22 -80 3 -82 1 -56 -85 l14
-47 -39 0 c-38 0 -40 2 -106 102 l-68 101 -3 -100 -3 -99 -64 0 -65 1 0 223 0
222 53 0 52 0 65 -100z m1166 -30 l34 0 0 -55 0 -55 -36 0 -35 0 3 -47 c3 -46
4 -48 36 -51 32 -3 32 -4 32 -58 l0 -54 -44 0 c-102 0 -136 36 -136 145 0 63
-1 65 -25 65 -24 0 -25 3 -25 55 0 52 1 55 25 55 22 0 25 4 23 27 -3 25 2 28
52 44 l55 17 3 -44 c3 -43 4 -44 38 -44z m-373 -4 c15 -8 27 -11 27 -5 0 5 27
9 60 9 l60 0 0 -158 0 -158 -57 2 c-37 1 -57 6 -56 13 4 16 -12 14 -27 -4 -18
-22 -98 -19 -136 4 -42 25 -64 77 -64 148 0 120 100 197 193 149z m567 -154
l0 -159 -60 1 -60 1 0 157 0 158 60 0 60 0 0 -158z m401 78 c12 -44 26 -80 29
-80 4 0 12 36 19 80 l13 80 70 0 c60 0 69 -2 64 -16 -3 -8 -31 -88 -61 -177
-59 -170 -81 -207 -142 -233 -18 -8 -48 -14 -68 -14 l-35 0 0 55 c0 49 2 55
21 55 11 0 28 4 38 10 17 9 14 21 -45 165 l-63 155 68 0 68 0 24 -80z m-1491
-180 c11 -22 32 -46 48 -54 25 -14 25 -15 5 -16 -23 0 -63 43 -63 67 0 8 -4
11 -10 8 -15 -9 -30 4 -23 20 9 25 21 17 43 -25z m-33 -69 c-15 -6 -28 15 -33
55 l-6 39 23 -45 c13 -25 20 -47 16 -49z"/>
<path d="M983 1578 c-37 -18 -27 -28 27 -28 52 0 64 12 31 30 -24 12 -29 12
-58 -2z"/>
<path d="M1324 1545 c-35 -54 18 -116 71 -81 28 18 35 72 13 94 -21 21 -66 14
-84 -13z"/>
</g>
</svg>
